<?xml version="1.0" encoding="UTF-8"?>
<svg version="1.1" xmlns="http://www.w3.org/2000/svg" width="2211" height="433">
<path d="M0 0 C141.24 0 282.48 0 428 0 C428 142.89 428 285.78 428 433 C286.76 433 145.52 433 0 433 C0 290.11 0 147.22 0 0 Z " fill="#349676" transform="translate(0,0)"/>
<path d="M0 0 C0.79930158 -0.0060911 1.59860316 -0.01218221 2.422126 -0.01845789 C5.08581921 -0.035034 7.74903156 -0.03031984 10.4127655 -0.0255127 C12.32858779 -0.03285622 14.24440566 -0.04144327 16.16021729 -0.05117798 C21.35456269 -0.07337431 26.54874937 -0.07632555 31.74313569 -0.07443047 C36.08442707 -0.07431066 40.42568495 -0.08287891 44.766967 -0.09120798 C55.0125294 -0.11043579 65.25801032 -0.11332833 75.50358582 -0.10656738 C86.06064501 -0.09992883 96.61735462 -0.12278505 107.17434293 -0.15988111 C116.24889568 -0.19060692 125.32333615 -0.20193495 134.39793986 -0.1980443 C139.81301606 -0.19597957 145.22782027 -0.20141339 150.64284706 -0.22593689 C155.73771461 -0.24824858 160.83201514 -0.24628925 165.9268856 -0.22600937 C167.79164956 -0.22260702 169.65645201 -0.22765486 171.52116394 -0.24199295 C191.61745234 -0.38579574 191.61745234 -0.38579574 199.90757465 7.38419342 C207.95942019 15.74976174 208.22793168 23.65237562 208.18864441 34.8157959 C208.19435272 36.28004475 208.20131876 37.74428916 208.20944214 39.20852661 C208.2273394 43.17146445 208.2262115 47.13418044 208.22049975 51.09714651 C208.21740245 54.41209341 208.22350648 57.72699803 208.2295385 61.0419389 C208.24357129 68.86633347 208.24203327 76.69061883 208.2306366 84.51501465 C208.21916064 92.57157935 208.23322497 100.62781096 208.26003307 108.68433177 C208.28222773 115.61536554 208.28881887 122.54629504 208.28295666 129.4773618 C208.27959437 133.61079138 208.28195327 137.74400756 208.29920769 141.87740707 C208.31473467 145.76653385 208.3106582 149.65516942 208.29190254 153.54427719 C208.28823227 154.9660025 208.29127933 156.38776467 208.30178833 157.80945587 C208.36858703 167.59878679 207.47679228 176.52200825 200.46131897 183.99066162 C190.50346761 192.32732411 180.46110927 192.16339539 168.10200119 191.90833282 C164.9619164 191.84625181 161.82396498 191.82629185 158.68330383 191.81719971 C149.76345718 191.78423949 140.84500775 191.67924196 131.92619324 191.5423584 C126.44610895 191.46115362 120.9674299 191.42996164 115.48677444 191.42708588 C113.41930496 191.41588527 111.35183534 191.38587447 109.28495407 191.33530426 C95.06107331 190.98956578 85.50490187 193.20571478 73.62082958 201.1778183 C70.9669948 202.93610418 68.21687254 204.48255712 65.44474792 206.04675293 C63.57780474 207.14000065 61.71190708 208.23503591 59.84709167 209.33190918 C57.81595603 210.52090663 55.78470429 211.7097058 53.75334167 212.89831543 C52.76076355 213.47984375 51.76818542 214.06137207 50.74552917 214.66052246 C46.11702282 217.37091594 41.4840946 220.07358079 36.84709167 222.76940918 C36.04215271 223.23983643 35.23721375 223.71026367 34.40788269 224.19494629 C28.89921581 227.39440918 28.89921581 227.39440918 27.78459167 227.39440918 C27.63328452 215.35708433 28.09514645 203.41045446 28.78459167 191.39440918 C27.74641296 191.42059326 26.70823425 191.44677734 25.63859558 191.47375488 C21.74363725 191.56505677 17.84877109 191.62194475 13.95304871 191.66906738 C12.2751519 191.69403129 10.59736181 191.72801537 8.91984558 191.77160645 C-9.21020837 192.23052681 -9.21020837 192.23052681 -17.21540833 186.39440918 C-18.01475139 185.81362547 -18.81409445 185.23284176 -19.63766003 184.63445854 C-24.89239153 180.06812522 -27.68242567 173.75754196 -28.7636013 166.93529892 C-28.98400035 163.08993595 -29.01684254 159.27019305 -28.97590637 155.42126465 C-28.98241606 153.95789291 -28.99148877 152.4945307 -29.00289917 151.03118896 C-29.02578733 147.09299924 -29.01137847 143.15579058 -28.98842978 139.21763372 C-28.9693746 135.07701259 -28.9806935 130.93645146 -28.98733521 126.79580688 C-28.99365556 119.84756054 -28.97550845 112.89970282 -28.94270325 105.95153809 C-28.90518658 97.93965762 -28.90700641 89.92851194 -28.92974442 81.91659248 C-28.95075097 74.17871013 -28.94338873 66.44109717 -28.92342567 58.70322037 C-28.91547775 55.42350609 -28.91738493 52.14402205 -28.92745018 48.86431503 C-28.93806378 44.99794309 -28.92369815 41.13241987 -28.89070702 37.26618195 C-28.88255639 35.85457031 -28.88271665 34.44288011 -28.89218521 33.0312767 C-28.949593 23.4103427 -27.98514895 15.52420465 -21.22581005 8.25462151 C-14.88496919 2.20869102 -8.69291173 -0.06297832 0 0 Z " fill="#FCFDFD" transform="translate(127.21540832519531,101.6055908203125)"/>
<path d="M0 0 C1.45488579 -0.01270432 1.45488579 -0.01270432 2.93916321 -0.02566528 C6.1376364 -0.04901538 9.33562778 -0.05005768 12.53417969 -0.04882812 C14.76609488 -0.0559323 16.99800825 -0.06363167 19.22991943 -0.07189941 C23.90707473 -0.08534073 28.58406127 -0.08691513 33.26123047 -0.08105469 C39.23758428 -0.07516755 45.21312323 -0.10571177 51.18931961 -0.14617157 C55.79976723 -0.17210077 60.41002022 -0.17492105 65.0205307 -0.17127991 C67.22282708 -0.17296712 69.42513283 -0.18257102 71.62735748 -0.20042419 C74.71695923 -0.2227102 77.80493217 -0.21286152 80.89453125 -0.1953125 C81.79357681 -0.20857574 82.69262238 -0.22183899 83.61891174 -0.23550415 C91.64170915 -0.13031595 97.97571845 2.68115855 104.08105469 7.85742188 C109.47397268 14.36064651 112.44111724 19.57640201 112.49658203 28.08691406 C112.50329926 28.73643036 112.51001648 29.38594666 112.51693726 30.05514526 C112.53586059 32.19244136 112.53983893 34.32942231 112.54199219 36.46679688 C112.54842556 37.96266811 112.55515432 39.4585381 112.56216431 40.95440674 C112.57412399 44.08812371 112.57784664 47.22173057 112.57666016 50.35546875 C112.57645738 54.35110806 112.60372137 58.34603278 112.63820457 62.34150314 C112.66055861 65.43181534 112.66449507 68.52195811 112.6634407 71.61234283 C112.66578536 73.08420517 112.67454425 74.55607298 112.69010544 76.02785492 C112.80172037 87.67785346 111.20133293 95.97567688 103.14355469 104.69335938 C98.45571119 108.87083282 92.449369 111.52471314 86.15415955 111.57382202 C85.3314859 111.58242249 84.50881226 111.59102295 83.66120911 111.59988403 C82.76198227 111.60414398 81.86275543 111.60840393 80.9362793 111.61279297 C79.98630066 111.62097046 79.03632202 111.62914795 78.05755615 111.63757324 C74.9078433 111.66242073 71.75817562 111.67894478 68.60839844 111.69335938 C67.53140749 111.69868305 66.45441654 111.70400673 65.34478951 111.70949173 C59.64043006 111.73622494 53.93609248 111.75559631 48.23168945 111.77001953 C43.51860063 111.78334114 38.80594656 111.81116124 34.09301758 111.85205078 C28.39662573 111.90147171 22.70062731 111.92615283 17.00403023 111.93324661 C14.8379951 111.93994397 12.67196822 111.9551263 10.50605583 111.97913742 C7.46410829 112.01092662 4.42366335 112.01080442 1.3815918 112.00341797 C0.49653458 112.0198233 -0.38852264 112.03622864 -1.30039978 112.0531311 C-8.85873469 111.97849561 -15.29284099 109.58377489 -20.94706821 104.47420311 C-27.73458451 97.37323322 -29.89322248 88.94658197 -29.95507812 79.2878418 C-29.96468567 78.07275436 -29.97429321 76.85766693 -29.98419189 75.60575867 C-29.98844177 74.30048721 -29.99269165 72.99521576 -29.99707031 71.65039062 C-29.99989769 70.98094233 -30.00272507 70.31149403 -30.00563812 69.62175941 C-30.02059103 66.07880895 -30.029845 62.5358988 -30.03417969 58.99291992 C-30.03965772 55.35154931 -30.0636824 51.71055385 -30.09215164 48.06930065 C-30.11086542 45.25270034 -30.11598824 42.43618884 -30.11751556 39.61953163 C-30.12197602 37.6299518 -30.1405779 35.64041968 -30.15948486 33.65092468 C-30.13474634 23.55681846 -28.66435039 15.2760089 -21.19238281 7.82226562 C-14.46374711 1.79020675 -8.92513268 -0.02883342 0 0 Z " fill="#FCFDFD" transform="translate(174.7939453125,144.580078125)"/>
<path d="M0 0 C0.87414551 0.00088623 1.74829102 0.00177246 2.64892578 0.00268555 C12.52622729 0.18182644 20.53016899 2.85430159 29.3125 7.375 C29.6425 6.055 29.9725 4.735 30.3125 3.375 C41.5325 3.375 52.7525 3.375 64.3125 3.375 C64.40313755 17.34503486 64.47640994 31.31487202 64.51974869 45.28513527 C64.5405569 51.77320979 64.56875062 58.26107141 64.61425781 64.74902344 C64.65795712 71.01899665 64.6816879 77.28876601 64.69200897 83.55887985 C64.69935725 85.94209371 64.71370585 88.32529736 64.73542023 90.70842361 C65.01236667 122.38416431 65.01236667 122.38416431 54.3125 135.375 C53.59513672 136.29345703 53.59513672 136.29345703 52.86328125 137.23046875 C43.30805393 148.1335367 28.23813698 151.66585126 14.34863281 152.65820312 C10.28949342 152.77568619 6.24728126 152.79472852 2.1875 152.75 C1.47648132 152.74700897 0.76546265 152.74401794 0.03289795 152.74093628 C-12.79935748 152.67787984 -26.40595655 152.46884782 -38.6875 148.375 C-38.6875 139.135 -38.6875 129.895 -38.6875 120.375 C-33.02136421 120.375 -30.12513489 120.61900469 -25 122.25 C-11.24811905 126.36680512 3.91581982 128.95220326 17.71484375 123.41015625 C22.86866695 120.55971772 25.67587046 117.03225123 27.3125 111.375 C27.87827591 107.7095458 28.17628773 104.07997386 28.3125 100.375 C27.21550781 100.94089844 26.11851563 101.50679688 24.98828125 102.08984375 C23.53401727 102.83104926 22.07958107 103.57191695 20.625 104.3125 C19.90376953 104.68568359 19.18253906 105.05886719 18.43945312 105.44335938 C6.92019669 111.28188661 -8.51208239 111.26879955 -20.875 107.8125 C-31.73227517 103.81837287 -39.86335427 96.84381273 -45.375 86.75 C-52.83639565 70.52748171 -53.96553049 48.17781285 -48.01171875 31.27734375 C-41.45653017 16.91007203 -32.22057576 8.27109433 -17.6875 2.375 C-11.82059367 0.42419454 -6.15583637 -0.01127877 0 0 Z M-7.29296875 32.71875 C-14.44164673 41.20905662 -15.20025644 50.7107063 -14.48632812 61.46362305 C-13.76073506 69.01140737 -11.57013071 74.75442662 -5.9375 79.875 C2.70022877 83.86164405 11.90138551 84.58636992 21.0078125 81.4453125 C23.16135665 80.49664514 25.24100152 79.4897077 27.3125 78.375 C27.9725 78.045 28.6325 77.715 29.3125 77.375 C29.3125 61.205 29.3125 45.035 29.3125 28.375 C17.32298713 24.37849571 2.4333594 23.06341695 -7.29296875 32.71875 Z " fill="#454545" transform="translate(1777.6875,157.625)"/>
<path d="M0 0 C11.88 0 23.76 0 36 0 C40.25016703 14.96763153 44.06491958 30.02460809 47.8125 45.125 C48.41579369 47.54823235 49.01930783 49.97140982 49.62304688 52.39453125 C51.08456826 58.26239192 52.54338653 64.1309192 54 70 C57.29129915 62.18659084 59.95048137 54.23051273 62.51171875 46.15234375 C62.92918701 44.84610804 63.34706669 43.54000376 63.76533508 42.23402405 C65.07675755 38.13646488 66.38237177 34.03706747 67.6875 29.9375 C69.21158588 25.15204269 70.73805951 20.36736554 72.26941872 15.58423042 C72.87967083 13.67440074 73.48608476 11.76334602 74.092453 9.85227966 C74.64356499 8.12897179 74.64356499 8.12897179 75.20581055 6.37084961 C75.52905807 5.35510361 75.8523056 4.3393576 76.18534851 3.29283142 C77 1 77 1 78 0 C80.3756852 -0.0883967 82.72208674 -0.11530305 85.09765625 -0.09765625 C86.16094398 -0.09553383 86.16094398 -0.09553383 87.24571228 -0.09336853 C89.51801712 -0.08775443 91.79022475 -0.07519963 94.0625 -0.0625 C95.59960796 -0.05748681 97.13671745 -0.05292359 98.67382812 -0.04882812 C102.44925642 -0.03778042 106.22461171 -0.02050641 110 0 C112.29566475 7.38937726 114.5908023 14.77891805 116.88528919 22.16866112 C117.95102355 25.60096347 119.01693124 29.03321179 120.08325195 32.46533203 C121.11462166 35.7849805 122.145514 39.10477688 123.17609215 42.42467117 C123.75564677 44.29122029 124.33568037 46.15762066 124.91572571 48.02401733 C125.62339308 50.30422941 126.32929724 52.58498974 127.03311157 54.86639404 C127.66089472 56.90098764 128.29279921 58.93431584 128.92953491 60.96612549 C129.20504181 61.85725037 129.48054871 62.74837524 129.7644043 63.66650391 C130.00466843 64.4365274 130.24493256 65.2065509 130.49247742 65.99990845 C131 68 131 68 131 71 C131.66 71 132.32 71 133 71 C133.09603516 69.96987793 133.19207031 68.93975586 133.29101562 67.87841797 C134.09918039 61.45512582 135.78376307 55.21845632 137.34375 48.9453125 C137.67655887 47.59398383 138.0090321 46.24257245 138.34118652 44.89108276 C139.03435895 42.07479237 139.73057739 39.25927937 140.42919922 36.44433594 C141.32509199 32.83406912 142.21477799 29.22230832 143.10240936 25.61000252 C143.78678973 22.82664098 144.47364149 20.04389429 145.16133118 17.26134872 C145.49044916 15.9290094 145.81897397 14.5965234 146.14689636 13.26388931 C146.60399112 11.40856813 147.06460488 9.55411497 147.52539062 7.69970703 C147.91724548 6.11707565 147.91724548 6.11707565 148.3170166 4.50247192 C149 2 149 2 150 0 C161.55 0 173.1 0 185 0 C182.75013512 10.12439197 182.75013512 10.12439197 181.31103516 14.72705078 C180.98914719 15.7629837 180.66725922 16.79891663 180.33561707 17.86624146 C179.99025406 18.9648349 179.64489105 20.06342834 179.2890625 21.1953125 C178.92440384 22.36585175 178.55974518 23.53639099 178.18403625 24.74240112 C177.20322261 27.88892243 176.21931348 31.03445423 175.23398972 34.17956543 C174.21401363 37.43790738 173.1979665 40.69747318 172.18188477 43.95703125 C171.97954255 44.60610317 171.77720034 45.25517509 171.56872654 45.92391586 C171.16011701 47.23465123 170.75151873 48.54539011 170.34293175 49.85613251 C169.73059382 51.8199114 169.11776516 53.78353659 168.50483704 55.74713135 C166.04321466 63.63564352 163.59844727 71.52912198 161.17578125 79.4296875 C160.89317444 80.35113556 160.61056763 81.27258362 160.31939697 82.22195435 C159.27030234 85.6447451 158.2220816 89.06779718 157.17681885 92.49176025 C156.48254864 94.76576763 155.78633308 97.03917154 155.08984375 99.3125 C154.70691162 100.56675781 154.32397949 101.82101562 153.92944336 103.11328125 C153 106 153 106 152 108 C139.79 108 127.58 108 115 108 C108.74489449 89.41865715 102.67251015 70.8021827 96.84863281 52.08154297 C96.47445976 50.88473152 96.47445976 50.88473152 96.09272766 49.66374207 C95.62162941 48.15685125 95.15307779 46.64916126 94.68742371 45.14057922 C93.83548098 41.80281181 93.83548098 41.80281181 92 39 C91.73913101 39.84968857 91.47826202 40.69937714 91.20948792 41.57481384 C88.75534281 49.56633904 86.29819417 57.55693304 83.83763218 65.54648495 C82.5726183 69.6544203 81.30878557 73.76271143 80.04760742 77.87182617 C78.83138509 81.83431546 77.61211879 85.79585602 76.39069939 89.75674629 C75.92430085 91.27113742 75.45901659 92.78587217 74.99484444 94.30094719 C74.34656024 96.41630331 73.69439212 98.53042374 73.04125977 100.64428711 C72.67041763 101.85007919 72.2995755 103.05587128 71.91749573 104.29820251 C71 107 71 107 70 108 C67.26105915 108.08858646 64.5474673 108.11523479 61.80859375 108.09765625 C60.98875504 108.0962413 60.16891632 108.09482635 59.32423401 108.09336853 C56.69528618 108.08775289 54.06642227 108.07519779 51.4375 108.0625 C49.65950643 108.05748701 47.88151154 108.05292376 46.10351562 108.04882812 C41.73564455 108.03777839 37.36783652 108.02050331 33 108 C30.87623296 102.47120072 28.97226712 96.92315455 27.22851562 91.26416016 C26.96955002 90.43049423 26.71058441 89.59682831 26.44377136 88.73789978 C25.59566607 86.0056505 24.75091793 83.27237619 23.90625 80.5390625 C23.31257127 78.62383125 22.71869595 76.70866093 22.12463379 74.79354858 C20.56519922 69.76424609 19.00867772 64.73404649 17.45269775 59.70367432 C16.18724894 55.61433461 14.91970365 51.52564623 13.6520462 47.43699074 C12.13188503 42.53374051 10.6126945 37.63018976 9.09375 32.7265625 C8.80732132 31.80198872 8.52089264 30.87741493 8.2257843 29.92482376 C6.68661615 24.95496966 5.15101678 19.98404469 3.62081909 15.0114212 C3.0700946 13.22710283 2.51361485 11.44456305 1.95629883 9.66229248 C1.68003662 8.76875061 1.40377441 7.87520874 1.11914062 6.95458984 C0.8956897 6.23927094 0.67223877 5.52395203 0.4420166 4.78695679 C0 3 0 3 0 0 Z " fill="#454545" transform="translate(536,161)"/>
<path d="M0 0 C11.55 0 23.1 0 35 0 C35.33 17.16 35.66 34.32 36 52 C39.63 49.69 43.26 47.38 47 45 C59.09348276 38.41972262 73.12450395 36.61827896 86.625 40.0625 C95.23326593 43.28685048 102.05347157 49.73620865 106 58 C110.02331672 67.31058627 109.38297822 76.98946016 109.29296875 86.9140625 C109.28736442 88.73822682 109.28309828 90.56239569 109.28010559 92.38656616 C109.26872265 97.15741733 109.2393128 101.92798881 109.20599365 106.69873047 C109.17515057 111.57906309 109.16156999 116.45944148 109.14648438 121.33984375 C109.11443598 130.893371 109.06172253 140.44661834 109 150 C97.45 150 85.9 150 74 150 C73.95101562 145.91496094 73.90203125 141.82992187 73.8515625 137.62109375 C73.80688349 134.32052781 73.76039649 131.0199981 73.71270752 127.71947479 C73.66320012 124.2593918 73.61672139 120.79933469 73.578125 117.33911133 C73.53347449 113.34959534 73.47402923 109.36040916 73.4140625 105.37109375 C73.40251129 104.15796005 73.39096008 102.94482635 73.37905884 101.69493103 C73.55621574 85.57115343 73.55621574 85.57115343 68 71 C62.78616811 67.49152562 55.79222102 67.56180473 49.7890625 68.50390625 C42.42706159 70.21280123 42.42706159 70.21280123 36 74 C35.47933791 76.64390155 35.30791622 78.66716355 35.34057617 81.31713867 C35.32485062 82.42970284 35.32485062 82.42970284 35.30880737 83.56474304 C35.28000664 86.01624121 35.28635413 88.46633138 35.29296875 90.91796875 C35.27985663 92.61763789 35.2645539 94.31729142 35.24714661 96.016922 C35.20722629 100.49026678 35.19710169 104.96320462 35.19311523 109.43670654 C35.18215863 114.80413199 35.13431318 120.17133924 35.09262848 125.53859711 C35.03344229 133.69258125 35.02121075 141.84543018 35 150 C23.45 150 11.9 150 0 150 C0 100.5 0 51 0 0 Z " fill="#454545" transform="translate(741,119)"/>
<path d="M0 0 C11.55 0 23.1 0 35 0 C35.33 28.71 35.66 57.42 36 87 C39.3 82.71 42.6 78.42 46 74 C48.30961273 71.01849994 50.62092271 68.03856129 52.9375 65.0625 C53.46794922 64.37994141 53.99839844 63.69738281 54.54492188 62.99414062 C55.68725855 61.52580377 56.84785267 60.07153895 58.02368164 58.62988281 C59.58203395 56.55618657 60.85226981 54.57758671 62.14624023 52.34667969 C67.9195302 42.99011371 67.9195302 42.99011371 73.25015259 41.27676392 C79.55476758 40.26588195 85.84627566 40.72060048 92.1875 41.125 C94.11240248 41.19533827 96.03755322 41.25919697 97.96289062 41.31640625 C102.64812941 41.46961372 107.32129326 41.71038547 112 42 C107.81826776 48.3849326 107.81826776 48.3849326 105.30078125 51.26171875 C104.81843018 51.81754639 104.3360791 52.37337402 103.83911133 52.94604492 C103.33532959 53.5207251 102.83154785 54.09540527 102.3125 54.6875 C101.23862806 55.92625586 100.16572024 57.16584812 99.09375 58.40625 C98.5678125 59.0146875 98.041875 59.623125 97.5 60.25 C93.91641693 64.43084692 90.46923191 68.72440608 87 73 C84.64946585 75.86412774 82.29775524 78.7272835 79.9453125 81.58984375 C79.30335937 82.38519531 78.66140625 83.18054688 78 84 C77.37867188 84.66128906 76.75734375 85.32257813 76.1171875 86.00390625 C74.70342904 87.99759069 74.70342904 87.99759069 75.6015625 90.45703125 C77.03022135 93.05495558 78.57605999 95.33066088 80.375 97.6875 C85.54928976 104.66355138 90.30744154 111.89389351 95.09863281 119.13623047 C97.31429379 122.47337779 99.54324247 125.80146333 101.7734375 129.12890625 C103.01882522 130.9890635 104.26399677 132.84936526 105.50909424 134.7097168 C106.33613982 135.94456977 107.1638985 137.17894544 107.99237061 138.4128418 C109.15849553 140.15011921 110.32174066 141.88929162 111.484375 143.62890625 C112.16209961 144.64025635 112.83982422 145.65160645 113.53808594 146.69360352 C115 149 115 149 115 150 C79.6307589 152.98449117 79.6307589 152.98449117 71.08984375 148.45751953 C66.89585999 144.35141549 65.02620456 139.24237532 63.11523438 133.78564453 C61.12737476 128.82034721 58.00949341 124.58119637 55 120.1875 C53.93364576 118.5585061 52.87092118 116.9271282 51.8125 115.29296875 C49.56111199 111.84873742 47.29008386 108.41861076 45 105 C43.31002677 106.64302953 41.64783606 108.31471312 40 110 C39.29584961 110.71502686 38.59169922 111.43005371 37.86621094 112.16674805 C35.46545594 115.81153635 35.39715536 118.91728848 35.390625 123.14453125 C35.37499512 123.82753296 35.35936523 124.51053467 35.34326172 125.2142334 C35.2909689 127.74663986 35.27244802 130.27965316 35.25 132.8125 C35.1675 138.484375 35.085 144.15625 35 150 C23.45 150 11.9 150 0 150 C0 100.5 0 51 0 0 Z " fill="#454545" transform="translate(1287,119)"/>
<path d="M0 0 C2.16311087 0.00316173 4.32484927 -0.02042404 6.48779297 -0.0456543 C22.26020302 -0.11826357 39.18712534 1.47744659 51.29638672 12.69067383 C57.73583302 19.77406476 59.45404428 27.03864348 59.40991211 36.38891602 C59.41005814 37.19904648 59.41020416 38.00917694 59.41035461 38.84385681 C59.40965896 41.51678156 59.40188277 44.18963628 59.39404297 46.86254883 C59.39217756 48.71771202 59.39075424 50.57287569 59.38975525 52.42803955 C59.38593977 57.30736657 59.37611774 62.18666376 59.36505127 67.065979 C59.35481633 72.04634192 59.35025316 77.02670967 59.34521484 82.00708008 C59.33449461 91.77662654 59.31690564 101.54614303 59.29638672 111.31567383 C47.74638672 111.31567383 36.19638672 111.31567383 24.29638672 111.31567383 C23.96638672 108.01567383 23.63638672 104.71567383 23.29638672 101.31567383 C22.61833984 101.84676758 21.94029297 102.37786133 21.24169922 102.92504883 C7.45052833 113.39258573 -5.65922165 115.85512273 -22.70361328 114.31567383 C-32.00312035 112.19403789 -39.92440335 106.82588879 -45.33251953 98.94067383 C-50.67430382 89.68766857 -51.37044645 78.57183343 -48.98486328 68.18676758 C-44.91578172 57.43979813 -37.27717979 51.73740028 -26.98876953 47.08911133 C-10.9861106 41.20875138 7.40263 40.05032686 24.29638672 40.31567383 C23.13957485 35.91414574 22.17540284 32.26794129 19.04638672 28.87817383 C8.16681191 22.69659723 -7.94727353 23.18064989 -19.70361328 26.31567383 C-23.59241954 27.54286243 -27.4305319 28.886283 -31.25830078 30.29223633 C-34.70361328 31.31567383 -34.70361328 31.31567383 -40.70361328 31.31567383 C-40.70361328 22.73567383 -40.70361328 14.15567383 -40.70361328 5.31567383 C-26.86034036 1.8548556 -14.1672899 -0.04306652 0 0 Z M12.29638672 61.62817383 C10.77078125 61.80509766 10.77078125 61.80509766 9.21435547 61.9855957 C-2.20788129 63.18664437 -2.20788129 63.18664437 -11.70361328 69.00317383 C-14.0578213 72.90233085 -15.00163718 75.77519203 -14.70361328 80.31567383 C-13.55444214 84.21008715 -12.76918486 86.53139825 -9.46923828 88.96020508 C-1.94325094 92.64878927 6.82400564 91.68257639 14.66357422 89.49536133 C15.96681641 88.91141602 15.96681641 88.91141602 17.29638672 88.31567383 C17.9103833 88.0456958 18.52437988 87.77571777 19.15698242 87.49755859 C21.35494862 86.29096818 22.73873579 85.29215258 24.29638672 83.31567383 C25.16016621 79.34773406 24.95828159 75.53981556 24.73388672 71.50317383 C24.70230469 70.42874023 24.67072266 69.35430664 24.63818359 68.24731445 C24.55584255 65.60063814 24.44092229 62.95956289 24.29638672 60.31567383 C20.31516837 60.31567383 16.24120936 61.1405297 12.29638672 61.62817383 Z " fill="#454545" transform="translate(923.70361328125,157.684326171875)"/>
<path d="M0 0 C1.64162109 -0.02416992 1.64162109 -0.02416992 3.31640625 -0.04882812 C17.63100303 -0.0572983 30.27587194 3.59599718 40.9375 13.4375 C54.39112802 27.75910402 53.125 44.00593367 53.125 63.3125 C14.02 63.8075 14.02 63.8075 -25.875 64.3125 C-23.7244138 75.06437524 -23.7244138 75.06437524 -16.79296875 82.8515625 C-4.33922775 90.10740478 10.50840548 90.65766381 24.3125 87.54296875 C29.36621141 86.0698488 34.00096763 83.65223592 38.58398438 81.09399414 C39.20595703 80.75102295 39.82792969 80.40805176 40.46875 80.0546875 C41.27602539 79.58844971 41.27602539 79.58844971 42.09960938 79.11279297 C44.125 78.3125 44.125 78.3125 51.125 77.3125 C51.125 86.8825 51.125 96.4525 51.125 106.3125 C35.72487954 111.73920911 21.93812509 114.83480697 5.5625 114.6875 C4.26892578 114.69910156 2.97535156 114.71070313 1.64257812 114.72265625 C-17.29433056 114.66570314 -34.75987226 109.60679102 -49 96.8125 C-59.26720738 86.11406991 -62.27043181 72.32587798 -62.1875 58 C-62.18186035 56.98325195 -62.1762207 55.96650391 -62.17041016 54.91894531 C-61.91711345 39.2647074 -57.2082405 27.06932302 -46.359375 15.6015625 C-33.16152428 3.44127866 -17.42298389 -0.0509444 0 0 Z M-20.875 28.3125 C-24.98106081 33.42003906 -25.90803213 36.54372488 -26.875 43.3125 C-12.025 43.3125 2.825 43.3125 18.125 43.3125 C16.66401063 32.58503275 16.66401063 32.58503275 10.125 25.3125 C0.0473038 20.74808889 -12.22953337 20.84596064 -20.875 28.3125 Z " fill="#454545" transform="translate(2024.875,157.6875)"/>
<path d="M0 0 C1.64162109 -0.02416992 1.64162109 -0.02416992 3.31640625 -0.04882812 C17.63100303 -0.0572983 30.27587194 3.59599718 40.9375 13.4375 C54.39112802 27.75910402 53.125 44.00593367 53.125 63.3125 C14.02 63.8075 14.02 63.8075 -25.875 64.3125 C-23.7244138 75.06437524 -23.7244138 75.06437524 -16.79296875 82.8515625 C-4.33922775 90.10740478 10.50840548 90.65766381 24.3125 87.54296875 C29.36621141 86.0698488 34.00096763 83.65223592 38.58398438 81.09399414 C39.20595703 80.75102295 39.82792969 80.40805176 40.46875 80.0546875 C41.27602539 79.58844971 41.27602539 79.58844971 42.09960938 79.11279297 C44.125 78.3125 44.125 78.3125 51.125 77.3125 C51.125 86.8825 51.125 96.4525 51.125 106.3125 C35.72487954 111.73920911 21.93812509 114.83480697 5.5625 114.6875 C4.26892578 114.69910156 2.97535156 114.71070313 1.64257812 114.72265625 C-17.29433056 114.66570314 -34.75987226 109.60679102 -49 96.8125 C-59.26720738 86.11406991 -62.27043181 72.32587798 -62.1875 58 C-62.18186035 56.98325195 -62.1762207 55.96650391 -62.17041016 54.91894531 C-61.91711345 39.2647074 -57.2082405 27.06932302 -46.359375 15.6015625 C-33.16152428 3.44127866 -17.42298389 -0.0509444 0 0 Z M-20.875 28.3125 C-24.98106081 33.42003906 -25.90803213 36.54372488 -26.875 43.3125 C-12.025 43.3125 2.825 43.3125 18.125 43.3125 C16.66401063 32.58503275 16.66401063 32.58503275 10.125 25.3125 C0.0473038 20.74808889 -12.22953337 20.84596064 -20.875 28.3125 Z " fill="#454545" transform="translate(1472.875,157.6875)"/>
<path d="M0 0 C8.68134701 6.17435737 13.59260793 14.16351139 15.6171875 24.55859375 C16.15430997 30.84184986 15.96728653 37.17337197 15.91015625 43.47265625 C15.90455192 45.29682057 15.90028578 47.12098944 15.89729309 48.94515991 C15.88591015 53.71601108 15.8565003 58.48658256 15.82318115 63.25732422 C15.79233807 68.13765684 15.77875749 73.01803523 15.76367188 77.8984375 C15.73162348 87.45196475 15.67891003 97.00521209 15.6171875 106.55859375 C4.0671875 106.55859375 -7.4828125 106.55859375 -19.3828125 106.55859375 C-19.43179688 102.47355469 -19.48078125 98.38851562 -19.53125 94.1796875 C-19.57592901 90.87912156 -19.62241601 87.57859185 -19.67010498 84.27806854 C-19.71961238 80.81798555 -19.76609111 77.35792844 -19.8046875 73.89770508 C-19.84933801 69.90818909 -19.90878327 65.91900291 -19.96875 61.9296875 C-19.98030121 60.7165538 -19.99185242 59.5034201 -20.00375366 58.25352478 C-19.82659676 42.12974718 -19.82659676 42.12974718 -25.3828125 27.55859375 C-30.59664439 24.05011937 -37.59059148 24.12039848 -43.59375 25.0625 C-50.95575091 26.77139498 -50.95575091 26.77139498 -57.3828125 30.55859375 C-57.90347459 33.2024953 -58.07489628 35.2257573 -58.04223633 37.87573242 C-58.05796188 38.98829659 -58.05796188 38.98829659 -58.07400513 40.12333679 C-58.10280586 42.57483496 -58.09645837 45.02492513 -58.08984375 47.4765625 C-58.10295587 49.17623164 -58.1182586 50.87588517 -58.13566589 52.57551575 C-58.17558621 57.04886053 -58.18571081 61.52179837 -58.18969727 65.99530029 C-58.20065387 71.36272574 -58.24849932 76.72993299 -58.29018402 82.09719086 C-58.34937021 90.251175 -58.36160175 98.40402393 -58.3828125 106.55859375 C-69.9328125 106.55859375 -81.4828125 106.55859375 -93.3828125 106.55859375 C-93.3828125 70.91859375 -93.3828125 35.27859375 -93.3828125 -1.44140625 C-81.8328125 -1.44140625 -70.2828125 -1.44140625 -58.3828125 -1.44140625 C-57.8878125 3.50859375 -57.8878125 3.50859375 -57.3828125 8.55859375 C-56.3309375 7.87023437 -56.3309375 7.87023437 -55.2578125 7.16796875 C-39.1272065 -3.26432535 -18.14261744 -10.97479645 0 0 Z " fill="#454545" transform="translate(2195.3828125,162.44140625)"/>
<path d="M0 0 C1.14138428 0.00161133 2.28276855 0.00322266 3.45874023 0.00488281 C16.54171454 0.19367299 26.33461942 3.02371974 38.375 8.375 C38.375 18.275 38.375 28.175 38.375 38.375 C31.69432773 38.375 31.69432773 38.375 27.625 35.125 C18.17939353 28.17100656 8.60515812 25.58222568 -3.171875 26.59375 C-9.66729078 27.75844524 -15.17987919 30.37145913 -19.38671875 35.5390625 C-26.08387908 45.75506978 -26.47931701 56.53484251 -24.625 68.375 C-23.05884043 74.94392069 -20.37190241 79.77847838 -15.0078125 83.96484375 C-6.31098135 89.11165694 3.669316 89.15856989 13.375 87.375 C20.16856697 85.3617942 25.8357607 82.76592351 30.6796875 77.51171875 C32.375 76.375 32.375 76.375 38.375 76.375 C38.375 86.275 38.375 96.175 38.375 106.375 C19.03611395 116.04444302 -4.2337262 117.99193403 -25.109375 111.70703125 C-40.64930256 105.81912536 -51.67211427 98.20435421 -58.9375 82.8125 C-65.0979964 68.95835198 -65.16480068 49.03416428 -59.8125 34.984375 C-59.420625 34.12328125 -59.02875 33.2621875 -58.625 32.375 C-58.274375 31.57578125 -57.92375 30.7765625 -57.5625 29.953125 C-50.94676833 16.6297765 -39.40208047 8.07217565 -25.62109375 3.19921875 C-17.03474397 0.83713296 -8.90590047 -0.01312877 0 0 Z " fill="#454545" transform="translate(1225.625,157.625)"/>
<path d="M0 0 C11.55 0 23.1 0 35 0 C35 10.23 35 20.46 35 31 C45.89 31 56.78 31 68 31 C68 38.59 68 46.18 68 54 C57.11 54 46.22 54 35 54 C35.09715349 60.97459774 35.20002353 67.94863163 35.31738281 74.92285156 C35.35556274 77.29324269 35.3904344 79.66368959 35.421875 82.03417969 C35.4677644 85.45007193 35.52571962 88.86558389 35.5859375 92.28125 C35.59748871 93.33364868 35.60903992 94.38604736 35.62094116 95.47033691 C35.75363369 102.15136887 36.22139377 108.24516463 39.125 114.375 C42.67905911 117.45518456 46.86905402 118.06166725 51.4296875 117.9296875 C53.96644354 117.68470483 56.47561666 117.35051045 59 117 C63.455 116.505 63.455 116.505 68 116 C68 123.92 68 131.84 68 140 C59.07656693 141.62244238 51.54108093 142.36567356 42.625 142.375 C41.40039062 142.39949219 40.17578125 142.42398438 38.9140625 142.44921875 C28.11278665 142.48354484 17.17169996 140.85197591 8.6484375 133.6953125 C-0.28774014 124.50502554 -0.29081677 113.82153743 -0.1953125 101.65625 C-0.19157576 100.27763068 -0.18873191 98.89900868 -0.18673706 97.52038574 C-0.17915258 93.91679366 -0.15954962 90.31336645 -0.1373291 86.70983887 C-0.11675802 83.02272775 -0.10771142 79.33558963 -0.09765625 75.6484375 C-0.07629799 68.43220831 -0.04115915 61.21614839 0 54 C-4.62 54 -9.24 54 -14 54 C-14 46.41 -14 38.82 -14 31 C-9.38 31 -4.76 31 0 31 C0 20.77 0 10.54 0 0 Z " fill="#454545" transform="translate(1553,130)"/>
<path d="M0 0 C11.55 0 23.1 0 35 0 C35 10.23 35 20.46 35 31 C45.89 31 56.78 31 68 31 C68 38.59 68 46.18 68 54 C57.11 54 46.22 54 35 54 C35.09715349 60.97459774 35.20002353 67.94863163 35.31738281 74.92285156 C35.35556274 77.29324269 35.3904344 79.66368959 35.421875 82.03417969 C35.4677644 85.45007193 35.52571962 88.86558389 35.5859375 92.28125 C35.59748871 93.33364868 35.60903992 94.38604736 35.62094116 95.47033691 C35.75363369 102.15136887 36.22139377 108.24516463 39.125 114.375 C42.67905911 117.45518456 46.86905402 118.06166725 51.4296875 117.9296875 C53.96644354 117.68470483 56.47561666 117.35051045 59 117 C63.455 116.505 63.455 116.505 68 116 C68 123.92 68 131.84 68 140 C59.07656693 141.62244238 51.54108093 142.36567356 42.625 142.375 C41.40039062 142.39949219 40.17578125 142.42398438 38.9140625 142.44921875 C28.11278665 142.48354484 17.17169996 140.85197591 8.6484375 133.6953125 C-0.28774014 124.50502554 -0.29081677 113.82153743 -0.1953125 101.65625 C-0.19157576 100.27763068 -0.18873191 98.89900868 -0.18673706 97.52038574 C-0.17915258 93.91679366 -0.15954962 90.31336645 -0.1373291 86.70983887 C-0.11675802 83.02272775 -0.10771142 79.33558963 -0.09765625 75.6484375 C-0.07629799 68.43220831 -0.04115915 61.21614839 0 54 C-4.62 54 -9.24 54 -14 54 C-14 46.41 -14 38.82 -14 31 C-9.38 31 -4.76 31 0 31 C0 20.77 0 10.54 0 0 Z " fill="#454545" transform="translate(1016,130)"/>
<path d="M0 0 C11.55 0 23.1 0 35 0 C35.495 6.93 35.495 6.93 36 14 C37.588125 12.783125 39.17625 11.56625 40.8125 10.3125 C53.71711335 0.92127171 62.49353583 0 79 0 C79 11.22 79 22.44 79 34 C73.4621875 33.690625 73.4621875 33.690625 67.8125 33.375 C58.84574782 32.94554167 50.79412383 33.13108868 42 35 C38.535 35.495 38.535 35.495 35 36 C35 59.76 35 83.52 35 108 C23.45 108 11.9 108 0 108 C0 72.36 0 36.72 0 0 Z " fill="#454545" transform="translate(1873,161)"/>
<path d="M0 0 C11.55 0 23.1 0 35 0 C35 35.64 35 71.28 35 108 C23.45 108 11.9 108 0 108 C0 72.36 0 36.72 0 0 Z " fill="#464646" transform="translate(1104,161)"/>
<path d="M0 0 C1.45488579 -0.01270432 1.45488579 -0.01270432 2.93916321 -0.02566528 C6.1376364 -0.04901538 9.33562778 -0.05005768 12.53417969 -0.04882812 C14.76609488 -0.0559323 16.99800825 -0.06363167 19.22991943 -0.07189941 C23.90707473 -0.08534073 28.58406127 -0.08691513 33.26123047 -0.08105469 C39.23758428 -0.07516755 45.21312323 -0.10571177 51.18931961 -0.14617157 C55.79976723 -0.17210077 60.41002022 -0.17492105 65.0205307 -0.17127991 C67.22282708 -0.17296712 69.42513283 -0.18257102 71.62735748 -0.20042419 C74.71695923 -0.2227102 77.80493217 -0.21286152 80.89453125 -0.1953125 C81.79357681 -0.20857574 82.69262238 -0.22183899 83.61891174 -0.23550415 C91.64170915 -0.13031595 97.97571845 2.68115855 104.08105469 7.85742188 C109.47397268 14.36064651 112.44111724 19.57640201 112.49658203 28.08691406 C112.50329926 28.73643036 112.51001648 29.38594666 112.51693726 30.05514526 C112.53586059 32.19244136 112.53983893 34.32942231 112.54199219 36.46679688 C112.54842556 37.96266811 112.55515432 39.4585381 112.56216431 40.95440674 C112.57412399 44.08812371 112.57784664 47.22173057 112.57666016 50.35546875 C112.57645738 54.35110806 112.60372137 58.34603278 112.63820457 62.34150314 C112.66055861 65.43181534 112.66449507 68.52195811 112.6634407 71.61234283 C112.66578536 73.08420517 112.67454425 74.55607298 112.69010544 76.02785492 C112.80172037 87.67785346 111.20133293 95.97567688 103.14355469 104.69335938 C98.45571119 108.87083282 92.449369 111.52471314 86.15415955 111.57382202 C85.3314859 111.58242249 84.50881226 111.59102295 83.66120911 111.59988403 C82.76198227 111.60414398 81.86275543 111.60840393 80.9362793 111.61279297 C79.98630066 111.62097046 79.03632202 111.62914795 78.05755615 111.63757324 C74.9078433 111.66242073 71.75817562 111.67894478 68.60839844 111.69335938 C67.53140749 111.69868305 66.45441654 111.70400673 65.34478951 111.70949173 C59.64043006 111.73622494 53.93609248 111.75559631 48.23168945 111.77001953 C43.51860063 111.78334114 38.80594656 111.81116124 34.09301758 111.85205078 C28.39662573 111.90147171 22.70062731 111.92615283 17.00403023 111.93324661 C14.8379951 111.93994397 12.67196822 111.9551263 10.50605583 111.97913742 C7.46410829 112.01092662 4.42366335 112.01080442 1.3815918 112.00341797 C0.49653458 112.0198233 -0.38852264 112.03622864 -1.30039978 112.0531311 C-8.85873469 111.97849561 -15.29284099 109.58377489 -20.94706821 104.47420311 C-27.73458451 97.37323322 -29.89322248 88.94658197 -29.95507812 79.2878418 C-29.96468567 78.07275436 -29.97429321 76.85766693 -29.98419189 75.60575867 C-29.98844177 74.30048721 -29.99269165 72.99521576 -29.99707031 71.65039062 C-29.99989769 70.98094233 -30.00272507 70.31149403 -30.00563812 69.62175941 C-30.02059103 66.07880895 -30.029845 62.5358988 -30.03417969 58.99291992 C-30.03965772 55.35154931 -30.0636824 51.71055385 -30.09215164 48.06930065 C-30.11086542 45.25270034 -30.11598824 42.43618884 -30.11751556 39.61953163 C-30.12197602 37.6299518 -30.1405779 35.64041968 -30.15948486 33.65092468 C-30.13474634 23.55681846 -28.66435039 15.2760089 -21.19238281 7.82226562 C-14.46374711 1.79020675 -8.92513268 -0.02883342 0 0 Z M-19.54003906 17.47851562 C-19.95382813 18.11917969 -20.36761719 18.75984375 -20.79394531 19.41992188 C-21.30513916 20.17442627 -21.81633301 20.92893066 -22.34301758 21.70629883 C-24.54111448 27.33228773 -24.26173026 32.78970558 -24.26269531 38.77929688 C-24.27030884 40.07885315 -24.27792236 41.37840942 -24.2857666 42.71734619 C-24.29917946 45.4643213 -24.30079597 48.21100922 -24.29492188 50.95800781 C-24.28904403 54.45269294 -24.31954932 57.94597996 -24.36003876 61.44039536 C-24.39234903 64.80340271 -24.38779926 68.16613537 -24.38769531 71.52929688 C-24.40409058 72.77128845 -24.42048584 74.01328003 -24.43737793 75.29290771 C-24.36713557 84.20866987 -22.70236008 91.1784422 -16.54785156 97.85742188 C-15.8246875 98.37304688 -15.10152344 98.88867188 -14.35644531 99.41992188 C-13.63585937 99.95617187 -12.91527344 100.49242187 -12.17285156 101.04492188 C-6.56253551 104.28766613 -1.46820518 104.71108213 4.83837891 104.67871094 C5.68471893 104.68221558 6.53105896 104.68572021 7.40304565 104.68933105 C10.189029 104.69810272 12.97475644 104.69231429 15.76074219 104.68554688 C17.70598397 104.68689509 19.65122543 104.68883692 21.59646606 104.69134521 C25.66997491 104.69429051 29.74339592 104.69001886 33.81689453 104.68066406 C39.02418472 104.66928512 44.23126837 104.67582293 49.43855095 104.68780899 C53.45526671 104.69505659 57.47193401 104.69272609 61.48865128 104.68755341 C63.4078893 104.68622414 65.3271318 104.68783917 67.24636459 104.69251251 C69.93600768 104.6976238 72.62532259 104.68980254 75.31494141 104.67871094 C76.09961792 104.6827594 76.88429443 104.68680786 77.69274902 104.690979 C86.57157427 104.6235647 93.72520269 102.74844615 100.20605469 96.41992188 C104.31737167 91.036539 106.31813535 86.52485237 106.38305664 79.69848633 C106.39589188 78.52328934 106.40872711 77.34809235 106.42195129 76.13728333 C106.42933823 74.86543686 106.43672516 73.59359039 106.44433594 72.28320312 C106.45644356 70.32038643 106.45644356 70.32038643 106.46879578 68.31791687 C106.48381262 65.54470958 106.49365425 62.77152779 106.5012207 59.99829102 C106.51225638 56.46211551 106.54662653 52.92657427 106.5863924 49.39062214 C106.61898129 46.00067573 106.62334833 42.610794 106.63183594 39.22070312 C106.65809807 37.32811516 106.65809807 37.32811516 106.68489075 35.39729309 C106.66467144 27.16629337 105.81450599 21.62358164 100.31152344 15.21289062 C99.67859375 14.68308594 99.04566406 14.15328125 98.39355469 13.60742188 C97.45576172 12.79337891 97.45576172 12.79337891 96.49902344 11.96289062 C90.39742022 7.85704178 85.31553966 6.9742817 78.12475586 7 C77.24246811 6.99153046 76.36018036 6.98306091 75.45115662 6.97433472 C72.55029667 6.95104084 69.64996963 6.94994087 66.74902344 6.95117188 C64.72031953 6.94406489 62.69161762 6.93636511 60.66291809 6.92810059 C56.41543997 6.91467262 52.16814767 6.9130791 47.9206543 6.91894531 C42.49695094 6.92483479 37.07414475 6.89427267 31.65061474 6.85382843 C27.46136228 6.82788483 23.2723238 6.82508016 19.08300209 6.82872009 C17.08445293 6.82703458 15.08589328 6.81744724 13.08742332 6.79957581 C0.13455726 6.69649865 -10.76897377 6.61286758 -19.54003906 17.47851562 Z " fill="#3A9C7A" transform="translate(174.7939453125,144.580078125)"/>
<path d="M0 0 C24.09 0 48.18 0 73 0 C73 8.91 73 17.82 73 27 C48.91 27 24.82 27 0 27 C0 18.09 0 9.18 0 0 Z " fill="#464646" transform="translate(1635,191)"/>
<path d="M0 0 C12.21 0 24.42 0 37 0 C37 8.58 37 17.16 37 26 C24.79 26 12.58 26 0 26 C0 17.42 0 8.84 0 0 Z " fill="#464646" transform="translate(1103,119)"/>
<path d="M0 0 C4.66006543 0.50080849 7.09972943 2.38576059 10.6875 5.3125 C20.63351182 13.00171329 29.49096585 15.4360941 41.96386719 14.31347656 C50.56228352 12.9896916 57.17523105 7.49055236 63.16015625 1.5390625 C65 0 65 0 68 0 C67.13555322 5.61890409 63.73477243 9.6378691 59.4375 13.125 C49.14251016 20.27691251 38.20553335 21.3411409 26 20 C15.65490707 17.81043217 7.12168723 12.30024556 0.99609375 3.734375 C0 2 0 2 0 0 Z " fill="#3FA07F" transform="translate(183,203)"/>
<path d="M0 0 C2.60880189 0.07589242 3.83497043 0.18149813 6.125 1.5 C7.0625 3.3125 7.0625 3.3125 6.9375 5.8125 C5.98164205 8.54352271 5.48085429 9.72806098 3.0625 11.3125 C-0.08674548 11.70615568 -2.05659116 11.84104531 -4.8125 10.1875 C-6.44281294 7.47031176 -6.26765665 5.41597254 -5.9375 2.3125 C-3.9375 0.3125 -3.9375 0.3125 0 0 Z " fill="#3E9F7B" transform="translate(191.9375,173.6875)"/>
<path d="M0 0 C3.5625 0.3125 3.5625 0.3125 5.5625 1.4375 C7.10547074 4.33057013 6.47506088 6.24890275 5.5625 9.3125 C2.5625 11.3125 2.5625 11.3125 -1 11.125 C-4.4375 10.3125 -4.4375 10.3125 -6.4375 7.3125 C-5.96337668 2.45273602 -5.14410328 0.46764575 0 0 Z " fill="#3C9E7A" transform="translate(242.4375,173.6875)"/>
</svg>
